HIERARCHY
ROOT Hips
{
	OFFSET 0.000000 71.427986 0.000000
	CHANNELS 6 Xposition Yposition Zposition Xrotation Yrotation Zrotation
	JOINT Pelvis
	{
		OFFSET 0.000000 0.000000 0.000000
		CHANNELS 3 Xrotation Yrotation Zrotation
		JOINT LeftUpLeg
		{
			OFFSET 6.797100 -2.508499 -1.318700
			CHANNELS 3 Xrotation Yrotation Zrotation
			JOINT LeftLeg
			{
				OFFSET 0.069008 -29.241863 0.690200
				CHANNELS 3 Xrotation Yrotation Zrotation
				JOINT LeftFoot
				{
					OFFSET -0.069008 -29.568123 -0.266800
					CHANNELS 3 Xrotation Yrotation Zrotation
					JOINT LeftToeBase
					{
						OFFSET 3.145500 -8.631000 16.059900
						CHANNELS 3 Xrotation Yrotation Zrotation
						End Site
						{
							OFFSET 0.000000 18.501587 0.000000
						}
					}
				}
			}
			JOINT Left_ShortSleeve
			{
				OFFSET 0.265923 -10.480953 1.153800
				CHANNELS 3 Xrotation Yrotation Zrotation
				End Site
				{
					OFFSET 1.725763 19.823879 0.000000
				}
			}
		}
		JOINT RightUpLeg
		{
			OFFSET -6.797100 -2.508499 -1.318700
			CHANNELS 3 Xrotation Yrotation Zrotation
			JOINT RightLeg
			{
				OFFSET -0.082453 -29.241932 0.688000
				CHANNELS 3 Xrotation Yrotation Zrotation
				JOINT RightFoot
				{
					OFFSET 0.082453 -29.568058 -0.264600
					CHANNELS 3 Xrotation Yrotation Zrotation
					JOINT RightToeBase
					{
						OFFSET -3.115300 -8.682800 16.113400
						CHANNELS 3 Xrotation Yrotation Zrotation
						End Site
						{
							OFFSET 0.000000 18.567114 0.000000
						}
					}
				}
			}
			JOINT Right_ShortSleeve
			{
				OFFSET -0.265923 -10.480953 1.153800
				CHANNELS 3 Xrotation Yrotation Zrotation
				End Site
				{
					OFFSET -1.725766 19.823910 0.000000
				}
			}
		}
	}
	JOINT Spine
	{
		OFFSET 0.000000 13.368103 0.470500
		CHANNELS 3 Xrotation Yrotation Zrotation
		JOINT Spine1
		{
			OFFSET 0.147000 13.837402 0.538800
			CHANNELS 3 Xrotation Yrotation Zrotation
			JOINT Spine2
			{
				OFFSET 0.168000 16.242897 -1.435500
				CHANNELS 3 Xrotation Yrotation Zrotation
				JOINT Neck
				{
					OFFSET 0.217200 18.631500 -1.679100
					CHANNELS 3 Xrotation Yrotation Zrotation
					JOINT Head
					{
						OFFSET 0.000000 6.599396 1.385900
						CHANNELS 3 Xrotation Yrotation Zrotation
						JOINT Hat
						{
							OFFSET -0.532200 27.220596 -10.096100
							CHANNELS 3 Xrotation Yrotation Zrotation
							End Site
							{
								OFFSET 0.000000 22.029861 0.000000
							}
						}
						JOINT HairD
						{
							OFFSET -10.777400 17.437393 -1.325900
							CHANNELS 3 Xrotation Yrotation Zrotation
							JOINT HairD1
							{
								OFFSET -3.290299 -11.051193 1.062200
								CHANNELS 3 Xrotation Yrotation Zrotation
								End Site
								{
									OFFSET 0.000000 11.579437 0.000000
								}
							}
						}
						JOINT HairB
						{
							OFFSET -10.777400 17.437393 1.467900
							CHANNELS 3 Xrotation Yrotation Zrotation
							JOINT HairB1
							{
								OFFSET -1.561200 -12.956299 3.590200
								CHANNELS 3 Xrotation Yrotation Zrotation
								End Site
								{
									OFFSET 0.000000 13.534866 0.000000
								}
							}
						}
						JOINT HairA
						{
							OFFSET 9.713100 17.437393 1.467900
							CHANNELS 3 Xrotation Yrotation Zrotation
							JOINT HairA1
							{
								OFFSET 1.561200 -12.956299 3.590200
								CHANNELS 3 Xrotation Yrotation Zrotation
								End Site
								{
									OFFSET 0.000000 13.534866 0.000000
								}
							}
						}
						JOINT HairC
						{
							OFFSET 9.713100 17.437393 -1.325900
							CHANNELS 3 Xrotation Yrotation Zrotation
							JOINT HairC1
							{
								OFFSET 3.290300 -11.051193 1.062200
								CHANNELS 3 Xrotation Yrotation Zrotation
								End Site
								{
									OFFSET 0.000000 11.579437 0.000000
								}
							}
						}
					}
				}
				JOINT LeftShoulder
				{
					OFFSET 5.101800 15.108002 -2.763700
					CHANNELS 3 Xrotation Yrotation Zrotation
					JOINT LeftArm
					{
						OFFSET 9.825497 2.506317 -1.597400
						CHANNELS 3 Xrotation Yrotation Zrotation
						JOINT LeftForeArm
						{
							OFFSET 21.966244 0.000000 0.000000
							CHANNELS 3 Xrotation Yrotation Zrotation
							JOINT LeftHand
							{
								OFFSET 33.879036 0.000000 0.000000
								CHANNELS 3 Xrotation Yrotation Zrotation
								JOINT LeftHandThumb1
								{
									OFFSET 6.715286 -2.359680 3.363841
									CHANNELS 3 Xrotation Yrotation Zrotation
									JOINT LeftHandThumb2
									{
										OFFSET 2.507072 -1.447464 1.447461
										CHANNELS 3 Xrotation Yrotation Zrotation
										JOINT LeftHandThumb3
										{
											OFFSET 2.898338 -1.673355 1.673357
											CHANNELS 3 Xrotation Yrotation Zrotation
											End Site
											{
												OFFSET -0.295959 3.727692 -0.131651
											}
										}
									}
								}
								JOINT LeftHandIndex1
								{
									OFFSET 14.190811 -0.254547 3.840278
									CHANNELS 3 Xrotation Yrotation Zrotation
									JOINT LeftHandIndex2
									{
										OFFSET 3.551727 0.000000 -0.000000
										CHANNELS 3 Xrotation Yrotation Zrotation
										JOINT LeftHandIndex3
										{
											OFFSET 2.894196 0.000000 0.000000
											CHANNELS 3 Xrotation Yrotation Zrotation
											End Site
											{
												OFFSET -1.000603 2.690872 0.366626
											}
										}
									}
								}
								JOINT LeftHandMiddle1
								{
									OFFSET 13.776489 0.000000 0.000000
									CHANNELS 3 Xrotation Yrotation Zrotation
									JOINT LeftHandMiddle2
									{
										OFFSET 3.438232 0.000000 0.000000
										CHANNELS 3 Xrotation Yrotation Zrotation
										JOINT LeftHandMiddle3
										{
											OFFSET 3.691551 0.000000 0.000000
											CHANNELS 3 Xrotation Yrotation Zrotation
											End Site
											{
												OFFSET -1.082298 3.499527 0.457670
											}
										}
									}
								}
								JOINT LeftHandRing1
								{
									OFFSET 13.966164 -0.268127 -3.067488
									CHANNELS 3 Xrotation Yrotation Zrotation
									JOINT LeftHandRing2
									{
										OFFSET 3.162567 0.000000 0.000000
										CHANNELS 3 Xrotation Yrotation Zrotation
										JOINT LeftHandRing3
										{
											OFFSET 3.324348 0.000000 0.000000
											CHANNELS 3 Xrotation Yrotation Zrotation
											End Site
											{
												OFFSET -0.861900 3.184998 0.405154
											}
										}
									}
								}
								JOINT LeftHandPinky1
								{
									OFFSET 13.131393 -0.168503 -5.746925
									CHANNELS 3 Xrotation Yrotation Zrotation
									JOINT LeftHandPinky2
									{
										OFFSET 2.849182 0.000000 0.000000
										CHANNELS 3 Xrotation Yrotation Zrotation
										JOINT LeftHandPinky3
										{
											OFFSET 2.805038 0.000000 0.000000
											CHANNELS 3 Xrotation Yrotation Zrotation
											End Site
											{
												OFFSET -0.882500 2.642609 0.325652
											}
										}
									}
								}
							}
							JOINT Left_Sleeve
							{
								OFFSET 6.592125 -0.646545 0.805568
								CHANNELS 3 Xrotation Yrotation Zrotation
								End Site
								{
									OFFSET -0.000179 20.275787 -0.000000
								}
							}
						}
					}
				}
				JOINT RightShoulder
				{
					OFFSET -5.731700 15.108002 -2.763700
					CHANNELS 3 Xrotation Yrotation Zrotation
					JOINT RightArm
					{
						OFFSET -9.825497 2.506317 -1.597400
						CHANNELS 3 Xrotation Yrotation Zrotation
						JOINT RightForeArm
						{
							OFFSET -21.966242 0.000000 0.000000
							CHANNELS 3 Xrotation Yrotation Zrotation
							JOINT RightHand
							{
								OFFSET -33.879032 0.000000 0.000000
								CHANNELS 3 Xrotation Yrotation Zrotation
								JOINT RightHandThumb1
								{
									OFFSET -6.715286 -2.359680 3.363841
									CHANNELS 3 Xrotation Yrotation Zrotation
									JOINT RightHandThumb2
									{
										OFFSET -2.507072 -1.447464 1.447461
										CHANNELS 3 Xrotation Yrotation Zrotation
										JOINT RightHandThumb3
										{
											OFFSET -2.898338 -1.673355 1.673357
											CHANNELS 3 Xrotation Yrotation Zrotation
											End Site
											{
												OFFSET 0.295959 3.727692 -0.131651
											}
										}
									}
								}
								JOINT RightHandIndex1
								{
									OFFSET -14.190811 -0.254547 3.840278
									CHANNELS 3 Xrotation Yrotation Zrotation
									JOINT RightHandIndex2
									{
										OFFSET -3.551727 0.000000 -0.000000
										CHANNELS 3 Xrotation Yrotation Zrotation
										JOINT RightHandIndex3
										{
											OFFSET -2.894196 0.000000 0.000000
											CHANNELS 3 Xrotation Yrotation Zrotation
											End Site
											{
												OFFSET 1.000603 2.690872 0.366626
											}
										}
									}
								}
								JOINT RightHandMiddle1
								{
									OFFSET -13.776489 0.000000 0.000000
									CHANNELS 3 Xrotation Yrotation Zrotation
									JOINT RightHandMiddle2
									{
										OFFSET -3.438232 0.000000 0.000000
										CHANNELS 3 Xrotation Yrotation Zrotation
										JOINT RightHandMiddle3
										{
											OFFSET -3.691551 0.000000 0.000000
											CHANNELS 3 Xrotation Yrotation Zrotation
											End Site
											{
												OFFSET 1.082298 3.499527 0.457670
											}
										}
									}
								}
								JOINT RightHandRing1
								{
									OFFSET -13.966164 -0.268127 -3.067488
									CHANNELS 3 Xrotation Yrotation Zrotation
									JOINT RightHandRing2
									{
										OFFSET -3.162567 0.000000 0.000000
										CHANNELS 3 Xrotation Yrotation Zrotation
										JOINT RightHandRing3
										{
											OFFSET -3.324348 0.000000 0.000000
											CHANNELS 3 Xrotation Yrotation Zrotation
											End Site
											{
												OFFSET 0.861900 3.184998 0.405154
											}
										}
									}
								}
								JOINT RightHandPinky1
								{
									OFFSET -13.131393 -0.168503 -5.746925
									CHANNELS 3 Xrotation Yrotation Zrotation
									JOINT RightHandPinky2
									{
										OFFSET -2.849182 0.000000 0.000000
										CHANNELS 3 Xrotation Yrotation Zrotation
										JOINT RightHandPinky3
										{
											OFFSET -2.805038 0.000000 0.000000
											CHANNELS 3 Xrotation Yrotation Zrotation
											End Site
											{
												OFFSET 0.882500 2.642609 0.325652
											}
										}
									}
								}
							}
							JOINT Right_Sleeve
							{
								OFFSET -6.592125 -0.646545 0.805568
								CHANNELS 3 Xrotation Yrotation Zrotation
								End Site
								{
									OFFSET 0.000179 20.275787 -0.000000
								}
							}
						}
					}
				}
				JOINT Bind_Right_JacketString
				{
					OFFSET -3.534800 11.969597 7.200700
					CHANNELS 3 Xrotation Yrotation Zrotation
					JOINT Bind_Right_JacketString1
					{
						OFFSET -0.319900 -6.102600 2.794100
						CHANNELS 3 Xrotation Yrotation Zrotation
						End Site
						{
							OFFSET 0.000000 6.719452 0.000000
						}
					}
				}
				JOINT Bind_Left_JacketString
				{
					OFFSET 2.904800 11.969597 7.200700
					CHANNELS 3 Xrotation Yrotation Zrotation
					JOINT Bind_Left_JacketString1
					{
						OFFSET 0.364800 -5.904503 3.186800
						CHANNELS 3 Xrotation Yrotation Zrotation
						End Site
						{
							OFFSET 0.000000 6.719513 0.000000
						}
					}
				}
				JOINT HairE
				{
					OFFSET 5.915200 17.612701 -11.592200
					CHANNELS 3 Xrotation Yrotation Zrotation
					JOINT HairE1
					{
						OFFSET 0.289200 -7.171898 -1.284500
						CHANNELS 3 Xrotation Yrotation Zrotation
						End Site
						{
							OFFSET 0.000000 7.291756 0.000000
						}
					}
				}
				JOINT HairF
				{
					OFFSET -0.864800 17.612701 -11.592200
					CHANNELS 3 Xrotation Yrotation Zrotation
					JOINT HairF1
					{
						OFFSET 0.000000 -14.087097 -2.127501
						CHANNELS 3 Xrotation Yrotation Zrotation
						End Site
						{
							OFFSET 0.000000 14.246841 0.000000
						}
					}
				}
				JOINT HairG
				{
					OFFSET -8.087700 17.612701 -11.592200
					CHANNELS 3 Xrotation Yrotation Zrotation
					JOINT HairG1
					{
						OFFSET -0.293600 -6.081398 -0.910100
						CHANNELS 3 Xrotation Yrotation Zrotation
						End Site
						{
							OFFSET 0.000000 6.156120 0.000000
						}
					}
				}
			}
		}
	}
	JOINT Pouch
	{
		OFFSET 0.000000 4.394501 10.847300
		CHANNELS 3 Xrotation Yrotation Zrotation
		End Site
		{
			OFFSET 0.000000 21.880577 0.000000
		}
	}
	JOINT Bag
	{
		OFFSET -13.229000 4.813004 -0.593300
		CHANNELS 3 Xrotation Yrotation Zrotation
		End Site
		{
			OFFSET 0.000000 21.880577 0.000000
		}
	}
	JOINT OccupyGuyFacialAnim_Joint
	{
		OFFSET 1.000000 -70.206398 -1.655000
		CHANNELS 3 Xrotation Yrotation Zrotation
		End Site
		{
			OFFSET 0.000000 21.880577 0.000000
		}
	}
}
MOTION
Frames: 4
Frame Time: 0.016667
9.284651 63.477966 50.303852 -196.523776 47.376784 185.697298 -0.000001 0.000001 0.000001 -46.842134 -5.229453 21.076277 28.795326 -44.035483 3.655814 -3.996135 -0.792806 -16.992607 -0.000000 -0.000000 -0.000000 0.000003 0.000002 -0.000000 -31.975944 -27.739189 -22.270662 48.491112 -9.832850 6.530041 -20.955181 -4.517742 15.119331 -0.000000 0.000000 0.000000 0.000000 -0.000000 0.000001 12.727240 3.716939 -3.059330 11.924104 11.118067 -15.175186 1.101642 14.665748 -10.905800 10.817001 7.709369 8.813433 -10.499627 11.214117 -3.938371 0.000001 0.000000 -0.000000 0.000001 0.000000 -0.000000 0.000001 0.000000 0.000000 0.000001 0.000000 -0.000000 -0.000002 0.000000 0.000000 0.000001 0.000000 -0.000000 -0.000002 0.000000 0.000000 0.000001 0.000000 -0.000000 0.000001 0.000000 -0.000000 0.441630 12.913608 -8.023906 24.289891 30.045162 -67.066686 -59.876635 -28.113497 -29.309523 -3.278561 20.437927 28.775577 14.303317 -13.828655 17.477156 -1.153271 11.257884 -8.413991 -0.000000 -0.000001 0.000001 -1.170654 -7.739202 -1.295050 -0.043942 -0.937985 -21.136830 0.000002 0.000001 0.000002 1.351898 3.178790 -22.421066 0.508240 -1.065577 -16.741345 0.000002 -0.000001 -0.000003 1.727816 5.794769 -31.799168 -0.855261 -0.880768 -22.637684 0.000001 0.000001 0.000001 1.357509 4.983813 -40.153149 -1.028391 -0.556619 -20.486632 -0.000003 -0.000000 0.000003 -0.000001 -0.000000 0.000002 1.205995 17.292716 2.836855 -64.233367 30.995545 72.958052 51.591113 12.758263 4.090914 2.838948 31.571846 -10.829805 55.149584 18.649488 -29.698277 -0.442574 -14.180512 7.313136 0.000000 -0.000001 0.000000 5.673392 7.585022 36.844178 1.050466 3.824501 68.900237 -0.000003 0.000003 0.000003 -0.125663 1.886086 45.000753 -1.169023 3.204663 68.417643 0.000007 -0.000001 -0.000001 -5.312008 1.216673 58.508814 -0.745205 1.667582 48.011288 -0.000001 0.000004 0.000003 -7.756832 -9.376456 47.263987 -0.526017 1.541569 45.600522 0.000001 0.000003 0.000003 -0.000000 -0.000000 0.000002 0.000001 0.000000 0.000000 0.000002 0.000000 -0.000000 0.000001 0.000000 0.000000 0.000001 0.000000 0.000000 0.000001 0.000000 0.000000 0.000002 0.000000 -0.000000 0.000001 0.000000 0.000000 0.000001 0.000000 0.000000 0.000001 0.000000 0.000000 0.000002 0.000000 -0.000000 -0.000001 0.000001 0.000001 -0.000001 0.000001 0.000001 -0.000001 0.000001 0.000001 
9.107159 63.570038 50.069294 -196.902660 49.646009 186.413430 0.000001 0.000002 -0.000001 -46.296487 -5.000900 21.715439 29.865388 -42.420007 3.668511 -4.719194 -0.541292 -16.510920 -0.000000 -0.000000 -0.000000 -0.000001 0.000002 0.000000 -32.397643 -27.388388 -22.822708 47.684542 -7.686469 6.725435 -20.342393 -4.234189 14.125660 -0.000000 -0.000001 -0.000000 -0.000000 0.000000 -0.000002 12.590042 3.659212 -3.047784 11.663248 11.031794 -15.073987 0.830132 14.573228 -10.818434 11.049080 7.758147 8.929905 -10.080382 11.211611 -3.802278 -0.000001 -0.000000 -0.000000 -0.000001 -0.000000 -0.000000 -0.000001 -0.000000 -0.000000 -0.000001 -0.000000 -0.000000 -0.000001 -0.000000 -0.000000 -0.000001 -0.000000 -0.000000 -0.000001 -0.000000 -0.000000 -0.000001 -0.000000 -0.000000 -0.000001 -0.000000 -0.000000 0.560202 12.569467 -8.809947 21.591058 29.149615 -64.927198 -59.006974 -28.841727 -29.005348 -2.755792 20.006116 26.728940 15.094030 -13.012262 16.727415 -1.153504 11.258002 -8.413064 0.000002 0.000003 -0.000001 -1.291517 -7.470758 -5.110736 -0.002008 -0.823185 -18.506075 0.000001 0.000000 0.000005 1.303964 3.063936 -24.663253 0.471297 -1.179148 -19.128380 0.000000 -0.000000 -0.000001 1.653454 5.671065 -34.035806 -0.906826 -0.999029 -25.024300 -0.000004 0.000001 -0.000001 1.279398 4.888714 -42.390954 -1.078342 -0.680989 -22.872768 -0.000001 0.000001 0.000003 -0.000002 -0.000001 -0.000003 1.220478 16.569691 3.011177 -64.817887 30.100002 76.400911 53.142946 8.465465 3.719474 2.148550 35.073400 -9.633458 55.149580 18.649492 -29.698284 -0.442570 -14.180519 7.313134 -0.000001 -0.000001 0.000002 5.673386 7.585021 36.844178 1.050466 3.824497 68.900230 -0.000001 0.000000 -0.000001 -0.125666 1.886089 45.000749 -1.169024 3.204658 68.417636 0.000004 -0.000002 -0.000005 -5.312008 1.216675 58.508807 -0.745203 1.667581 48.011285 0.000002 -0.000001 -0.000001 -7.756834 -9.376456 47.263987 -0.526017 1.541564 45.600518 -0.000002 0.000003 0.000004 -0.000000 0.000000 0.000000 -0.000001 -0.000001 0.000000 0.000000 0.000000 0.000001 -0.000001 -0.000001 0.000000 -0.000001 -0.000001 0.000000 -0.000001 -0.000001 0.000000 0.000000 0.000000 0.000001 -0.000001 -0.000001 0.000000 -0.000001 -0.000001 0.000000 -0.000001 -0.000001 0.000000 0.000000 0.000000 0.000001 0.000001 0.000002 -0.000001 0.000001 0.000002 -0.000001 0.000001 0.000002 -0.000001 
8.902658 63.609962 49.823284 -197.461356 52.004995 187.265045 0.000001 -0.000001 -0.000000 -45.892546 -4.916730 22.290058 31.301917 -40.642132 3.787691 -5.609886 -0.244042 -16.038131 -0.000000 -0.000000 -0.000000 -0.000003 -0.000001 -0.000000 -33.009826 -26.931854 -23.344364 47.059935 -5.720156 6.884414 -19.706923 -3.798156 13.262450 -0.000000 -0.000000 0.000000 -0.000001 0.000000 -0.000001 12.415402 3.574473 -3.035028 11.349581 10.896053 -14.949134 0.503251 14.434857 -10.712575 11.312818 7.850709 9.045668 -9.601165 11.292456 -3.805256 0.000001 0.000000 -0.000001 0.000001 0.000000 -0.000001 0.000001 0.000000 -0.000001 0.000001 0.000000 -0.000001 0.000003 0.000000 -0.000000 0.000001 0.000000 -0.000001 0.000003 0.000000 -0.000000 0.000001 0.000000 -0.000001 0.000001 0.000000 -0.000001 0.690148 12.814778 -9.700471 17.839870 28.067211 -61.512007 -57.352190 -29.386875 -29.329526 -2.509848 19.581715 26.010323 15.852555 -12.226246 15.981167 -1.153662 11.258093 -8.412007 -0.000000 0.000001 0.000001 -1.364785 -7.206519 -8.793122 0.033233 -0.710942 -15.958037 0.000003 0.000001 0.000000 1.253970 2.954663 -26.823603 0.431633 -1.287428 -21.434320 0.000005 0.000001 0.000001 1.578069 5.553397 -36.190560 -0.962024 -1.110698 -27.329894 -0.000001 0.000002 0.000001 1.200972 4.799970 -44.547023 -1.129978 -0.799921 -25.177735 -0.000002 -0.000000 0.000001 -0.000003 0.000002 0.000001 1.222238 16.439876 2.931221 -60.208261 28.479529 76.380803 52.535431 10.352234 -2.661529 -0.725320 34.527798 -2.792972 55.149580 18.649488 -29.698281 -0.442573 -14.180515 7.313136 0.000001 0.000002 -0.000000 5.673392 7.585023 36.844178 1.050462 3.824501 68.900230 -0.000002 0.000001 0.000001 -0.125661 1.886088 45.000753 -1.169025 3.204661 68.417636 0.000002 -0.000001 -0.000001 -5.312006 1.216675 58.508807 -0.745204 1.667583 48.011292 -0.000002 -0.000001 -0.000005 -7.756832 -9.376456 47.263987 -0.526019 1.541562 45.600515 0.000004 0.000004 -0.000001 -0.000001 -0.000000 0.000001 -0.000001 0.000001 0.000000 -0.000001 0.000001 -0.000000 -0.000001 0.000001 0.000000 -0.000001 0.000001 0.000000 -0.000001 0.000001 0.000000 -0.000001 0.000001 -0.000000 -0.000001 0.000001 0.000000 -0.000001 0.000001 0.000000 -0.000001 0.000001 0.000000 -0.000001 0.000001 -0.000000 0.000001 -0.000001 -0.000000 0.000001 -0.000001 -0.000000 0.000001 -0.000001 -0.000000 
8.720795 63.621880 49.501266 -198.316127 54.599122 188.380797 -0.000000 -0.000002 0.000000 -45.650894 -4.733741 23.043841 33.002480 -38.855850 3.669345 -6.678999 0.049289 -15.347958 -0.000000 -0.000000 -0.000000 0.000001 -0.000001 -0.000002 -33.607273 -26.103255 -23.625127 46.422446 -3.747051 6.977414 -19.000796 -3.580187 12.524681 -0.000000 0.000000 0.000000 0.000001 0.000000 -0.000002 12.209459 3.473591 -3.046616 10.965563 10.728938 -14.870421 0.112393 14.271527 -10.661714 11.492994 7.964792 9.125443 -9.194656 11.332433 -3.605140 -0.000001 0.000000 -0.000000 -0.000001 0.000000 -0.000000 -0.000001 0.000000 -0.000000 -0.000001 0.000000 -0.000000 0.000001 0.000000 -0.000000 -0.000001 0.000000 -0.000000 0.000001 0.000000 -0.000000 -0.000001 0.000000 -0.000000 -0.000001 0.000000 -0.000000 0.813235 12.488584 -10.557384 13.645991 26.593010 -57.689164 -53.947050 -30.883820 -28.900829 -2.216762 18.855338 25.368735 16.555685 -11.495685 15.265823 -1.153762 11.258133 -8.410818 0.000002 0.000001 -0.000003 -1.394213 -6.959260 -12.216306 0.061286 -0.605638 -13.575358 -0.000002 -0.000001 0.000005 1.204421 2.854571 -28.821711 0.391332 -1.386592 -23.578616 0.000005 0.000000 0.000001 1.504876 5.445167 -38.183373 -1.018042 -1.212290 -29.473987 0.000000 0.000000 -0.000003 1.125881 4.720282 -46.541162 -1.183255 -0.908409 -27.321242 -0.000002 -0.000001 0.000001 0.000003 0.000001 -0.000003 1.273172 15.702841 2.792937 -54.445675 25.923075 69.909868 52.735921 24.416314 -3.568422 -2.348692 28.229720 0.359078 55.149584 18.649490 -29.698267 -0.442572 -14.180517 7.313136 -0.000001 -0.000002 0.000003 5.673386 7.585025 36.844175 1.050466 3.824500 68.900237 -0.000000 -0.000001 0.000002 -0.125665 1.886089 45.000753 -1.169020 3.204664 68.417636 0.000003 0.000001 -0.000001 -5.312011 1.216673 58.508807 -0.745205 1.667581 48.011292 -0.000000 -0.000000 -0.000000 -7.756836 -9.376459 47.263987 -0.526018 1.541566 45.600522 0.000004 0.000001 0.000001 -0.000001 -0.000000 -0.000001 0.000002 0.000000 0.000000 0.000002 -0.000002 0.000000 0.000002 0.000000 0.000000 0.000002 0.000000 0.000000 0.000002 0.000000 0.000000 0.000002 -0.000002 0.000000 0.000002 0.000000 0.000000 0.000002 0.000000 0.000000 0.000002 0.000000 0.000000 0.000002 -0.000002 0.000000 -0.000000 -0.000002 0.000000 -0.000000 -0.000002 0.000000 -0.000000 -0.000002 0.000000 
